# xmcd
#
# Track frame offsets: 
#        150
#        69150
#        120075
#        200475
#        235460
#
# Disc length: 4266 seconds
#
# Revision: 3
# Processed by: cddbd v1.5.2PL0 Copyright (c) Steve Scherf et al.
# Submitted via: ExactAudioCopyFreeDBPlugin 1.0
#
DISCID=3910a805
DTITLE=Jones, Schwarz, Kollo, Moll, Konzertvereinigung Wiener Staatsop
DTITLE=ernchor, Wiener Philharmoniker, Leonard Bernstein - BNSTd105 Be
DTITLE=ethoven: Symphonie No.9
DYEAR=1979
DGENRE=Symphony
TTITLE0=Symphony No.9 in D minor, Op.125 'Choral' - 1. Allegro ma non 
TTITLE0=troppo, un poco maestoso
TTITLE1=Symphony No.9 in D minor, Op.125 'Choral' - 2. Molto vivace
TTITLE2=Symphony No.9 in D minor, Op.125 'Choral' - 3. Adagio molto e 
TTITLE2=cantabile
TTITLE3=Symphony No.9 in D minor, Op.125 'Choral' - 4. Presto -
TTITLE4=Symphony No.9 in D minor, Op.125 'Choral' - 4. Presto - 'O Fre
TTITLE4=unde, nicht diese Tone' - Allegro assai
EXTD=YEAR: 1979
EXTT0=
EXTT1=
EXTT2=
EXTT3=
EXTT4=
PLAYORDER=
